<svg id="Capa_1" data-name="Capa 1" xmlns="http://www.w3.org/2000/svg" viewBox="0 0 604.34 218.81"><defs><style>.cls-1{fill:#fbb03b;}.cls-2{fill:#0b93b2;}.cls-3{fill:#ed1c24;}</style></defs><path d="M240.16,111.41c0,1.9-1,2.84-3.09,2.84q-.6,0-5.23-4.68a15,15,0,0,0-11-4.69,16,16,0,0,0-15.9,15.88v56.42A2.58,2.58,0,0,1,202,180.1c-2,0-2.93-1-2.93-2.92V101.87A2.59,2.59,0,0,1,202,98.94c2,0,3,2.32,2.92,7a20.85,20.85,0,0,1,15.9-7q13.06,0,18.83,10.88A3.16,3.16,0,0,1,240.16,111.41Z"/><path d="M329.69,139.52a40.59,40.59,0,0,1-69.28,28.7,40.61,40.61,0,0,1,0-57.4,40.58,40.58,0,0,1,69.28,28.7Zm-5.86,0A34.73,34.73,0,1,0,264.55,164a34.72,34.72,0,0,0,59.28-24.5Z"/><path d="M423.4,139.52a40.58,40.58,0,1,1-81.16,0V64.22a2.93,2.93,0,1,1,5.86,0v54.3a40.63,40.63,0,0,1,34.72-19.58,40.56,40.56,0,0,1,40.58,40.58Zm-5.85,0A34.73,34.73,0,1,0,358.26,164a34.73,34.73,0,0,0,59.29-24.5Z"/><path d="M488.67,69.74c0,2-1,2.93-3,2.93-.12,0-1.66-.91-4.65-2.72a16.7,16.7,0,0,0-8.66-2.72,16,16,0,0,0-15.9,15.85V98.94h15.9c1.95,0,2.93,1,2.93,3s-1,3-2.93,3h-15.9v72.3a2.58,2.58,0,0,1-2.92,2.92c-2,0-2.93-1-2.93-2.92v-72.3H434.7c-1.95,0-2.93-1-2.93-3s1-3,2.93-3h15.9V83a21.85,21.85,0,0,1,21.75-21.75q10,0,15.4,6.36A3.3,3.3,0,0,1,488.67,69.74Z"/><path d="M553.1,152.07a28,28,0,0,1-56.07,0v-50.2a2.93,2.93,0,1,1,5.86,0V152a22.18,22.18,0,0,0,44.35,0V101.87a2.93,2.93,0,0,1,5.86,0Z"/><path d="M143.71,179.8H70.49a9,9,0,0,1-9-9V79.07a9,9,0,0,1,9-9h73.22a9,9,0,0,1,9,9v91.71A9,9,0,0,1,143.71,179.8ZM70.49,75.63A3.45,3.45,0,0,0,67,79.07v91.71a3.45,3.45,0,0,0,3.45,3.44h73.22a3.45,3.45,0,0,0,3.45-3.44V79.07a3.45,3.45,0,0,0-3.45-3.44Z"/><rect x="65.44" y="143.45" width="85.23" height="5.58"/><rect x="65.44" y="128.06" width="85.23" height="5.58"/><circle class="cls-1" cx="92.44" cy="95.44" r="5.74"/><path class="cls-2" d="M53.39,70.17A2.37,2.37,0,0,1,52.17,70L39.73,64.68a2.44,2.44,0,1,1,1.92-4.49L54.08,65.5a2.44,2.44,0,0,1-.69,4.67Z"/><path class="cls-2" d="M39.56,86.56a2.44,2.44,0,0,1-.77-4.82L52,78.93a2.44,2.44,0,1,1,1,4.77L39.8,86.52Z"/><path class="cls-2" d="M64.92,63h-.13a2.44,2.44,0,0,1-2.58-2.29L61.4,47.26a2.44,2.44,0,1,1,4.87-.3l.82,13.5A2.45,2.45,0,0,1,64.92,63Z"/><path class="cls-2" d="M76.8,65.16A2.42,2.42,0,0,1,75,64.64a2.46,2.46,0,0,1-.38-3.44l8.45-10.55a2.44,2.44,0,1,1,3.81,3.06L78.44,64.26A2.47,2.47,0,0,1,76.8,65.16Z"/><circle class="cls-1" cx="121.74" cy="95.44" r="5.74"/><path class="cls-3" d="M80.24,179.8v7.43a2.1,2.1,0,0,0,2.09,2.09H86a2.1,2.1,0,0,0,2.09-2.09V179.8Z"/><path class="cls-3" d="M126.25,179.8v7.43a2.1,2.1,0,0,0,2.09,2.09H132a2.1,2.1,0,0,0,2.09-2.09V179.8Z"/></svg>