<svg id="Capa_1" data-name="Capa 1" xmlns="http://www.w3.org/2000/svg" viewBox="0 0 237.7 218.81"><defs><style>.cls-1{fill:#fff;}.cls-2{fill:#fbb03b;}.cls-3{fill:#0b93b2;}.cls-4{fill:#ed1c24;}</style></defs><circle class="cls-1" cx="118.85" cy="109.4" r="105.31"/><path d="M151,162.88H85.27a8.1,8.1,0,0,1-8.1-8.09V72.45a8.1,8.1,0,0,1,8.1-8.1H151a8.1,8.1,0,0,1,8.1,8.1v82.34A8.1,8.1,0,0,1,151,162.88ZM85.27,69.35a3.1,3.1,0,0,0-3.1,3.1v82.34a3.1,3.1,0,0,0,3.1,3.09H151a3.09,3.09,0,0,0,3.09-3.09V72.45a3.09,3.09,0,0,0-3.09-3.1Z"/><rect x="80.73" y="130.24" width="76.53" height="5.01"/><rect x="80.73" y="116.43" width="76.53" height="5.01"/><circle class="cls-2" cx="104.97" cy="87.14" r="5.15"/><path class="cls-3" d="M69.91,64.46a2.13,2.13,0,0,1-1.1-.17L57.65,59.53a2.2,2.2,0,0,1,1.72-4l11.17,4.77a2.19,2.19,0,0,1,1.15,2.88A2.21,2.21,0,0,1,69.91,64.46Z"/><path class="cls-3" d="M57.5,79.17a2.2,2.2,0,0,1-.7-4.33l11.88-2.52a2.19,2.19,0,1,1,.91,4.28L57.72,79.13Z"/><path class="cls-3" d="M80.27,58h-.12a2.19,2.19,0,0,1-2.32-2l-.72-12.12a2.19,2.19,0,1,1,4.37-.26l.73,12.11A2.18,2.18,0,0,1,80.27,58Z"/><path class="cls-3" d="M90.94,60a2.19,2.19,0,0,1-2-3.55l7.59-9.47A2.2,2.2,0,0,1,100,49.67l-7.59,9.47A2.17,2.17,0,0,1,90.94,60Z"/><circle class="cls-2" cx="131.28" cy="87.14" r="5.15"/><path class="cls-4" d="M94,162.88v6.67a1.88,1.88,0,0,0,1.87,1.88h3.3a1.88,1.88,0,0,0,1.88-1.88v-6.67Z"/><path class="cls-4" d="M135.33,162.88v6.67a1.88,1.88,0,0,0,1.88,1.88h3.29a1.88,1.88,0,0,0,1.88-1.88v-6.67Z"/></svg>