<svg id="Capa_1" data-name="Capa 1" xmlns="http://www.w3.org/2000/svg" viewBox="0 0 431.74 218.81"><path d="M79.82,116.52c0,1.89-1,2.84-3.1,2.84q-.59,0-5.22-4.69a15,15,0,0,0-11-4.68,16,16,0,0,0-15.9,15.88v56.41c0,2-1,2.93-2.92,2.93a2.58,2.58,0,0,1-2.93-2.93V107a2.58,2.58,0,0,1,2.93-2.93c2,0,3,2.31,2.92,6.94a20.84,20.84,0,0,1,15.9-6.94q13,0,18.83,10.88A3.1,3.1,0,0,1,79.82,116.52Z"/><path d="M169.35,144.63a40.56,40.56,0,0,1-40.58,40.58,40.56,40.56,0,0,1-40.58-40.58,40.56,40.56,0,0,1,40.58-40.58,40.56,40.56,0,0,1,40.58,40.58Zm-5.86,0A34.65,34.65,0,0,0,128.77,110,34.67,34.67,0,0,0,94,144.63a34.67,34.67,0,0,0,34.73,34.64,34.65,34.65,0,0,0,34.72-34.64Z"/><path d="M263.06,144.63a40.59,40.59,0,0,1-69.28,28.7,39.11,39.11,0,0,1-11.88-28.7V69.32a2.93,2.93,0,1,1,5.86,0v54.31a40.63,40.63,0,0,1,34.72-19.58,40.56,40.56,0,0,1,40.58,40.58Zm-5.85,0a34.75,34.75,0,0,0-59.29-24.5,34.62,34.62,0,0,0,0,49,34.73,34.73,0,0,0,59.29-24.5Z"/><path d="M328.33,74.85c0,2-1,2.92-3,2.92-.12,0-1.66-.9-4.65-2.71A16.61,16.61,0,0,0,312,72.34a16,16,0,0,0-15.9,15.85v15.86H312c1.95,0,2.93,1,2.93,3s-1,3-2.93,3h-15.9v72.29c0,2-1,2.93-2.92,2.93a2.58,2.58,0,0,1-2.93-2.93V110h-15.9c-1.95,0-2.93-1-2.93-3s1-3,2.93-3h15.9V88.15A21.87,21.87,0,0,1,312,66.39q10,0,15.4,6.36A3.35,3.35,0,0,1,328.33,74.85Z"/><path d="M392.76,157.18a28,28,0,0,1-56.07,0V107a2.93,2.93,0,0,1,5.86,0v50.15a22.18,22.18,0,0,0,44.35,0V107c0-2,1-2.92,2.93-2.92a2.59,2.59,0,0,1,2.93,2.93Z"/></svg>